<?xml version="1.0" standalone="no"?>
<!DOCTYPE svg PUBLIC "-//W3C//DTD SVG 20010904//EN"
 "http://www.w3.org/TR/2001/REC-SVG-20010904/DTD/svg10.dtd">
<svg version="1.0" xmlns="http://www.w3.org/2000/svg"
 width="300.000000pt" height="277.000000pt" viewBox="0 0 300.000000 277.000000"
 preserveAspectRatio="xMidYMid meet">
<metadata>
Created by potrace 1.10, written by Peter Selinger 2001-2011
</metadata>
<g transform="translate(0.000000,277.000000) scale(0.100000,-0.100000)"
fill="#000000" stroke="none">
<path d="M294 2589 c-18 -20 -19 -43 -22 -338 -2 -174 0 -326 3 -339 3 -12 14
-31 25 -42 19 -19 34 -20 243 -20 221 0 224 0 245 23 22 23 22 28 22 360 0
324 -1 338 -20 357 -19 19 -33 20 -248 20 -220 0 -230 -1 -248 -21z m459 -28
c4 -1 7 -119 7 -263 l0 -263 -220 3 -220 3 2 257 3 257 195 5 c107 3 202 4
210 3 8 -1 18 -2 23 -2z m5 -613 l-3 -43 -209 -3 c-229 -3 -226 -3 -226 56 l0
32 221 0 220 0 -3 -42z"/>
<path d="M523 1959 c-16 -16 -5 -39 17 -39 25 0 35 18 20 35 -15 18 -22 19
-37 4z"/>
<path d="M1920 2320 l0 -290 195 0 195 0 0 -55 0 -55 -65 0 c-63 0 -65 -1 -65
-25 l0 -25 155 0 155 0 0 25 c0 24 -2 25 -65 25 l-65 0 0 55 0 55 195 0 195 0
0 290 0 290 -415 0 -415 0 0 -290z m783 0 l2 -240 -367 0 -368 0 0 243 0 242
365 -2 365 -2 3 -241z"/>
<path d="M2041 2486 c-20 -21 -21 -27 -9 -45 7 -12 15 -21 18 -21 12 0 61 71
55 80 -11 17 -41 11 -64 -14z"/>
<path d="M2106 2433 c-55 -60 -58 -65 -42 -81 15 -15 20 -13 78 46 62 61 62
62 43 81 -20 18 -21 18 -79 -46z"/>
<path d="M938 2215 l-5 -25 193 0 194 0 0 -160 0 -160 -25 0 c-49 0 -134 -41
-179 -85 -67 -68 -90 -123 -94 -227 l-4 -88 -34 0 c-115 0 -224 -122 -224
-250 0 -95 65 -196 149 -233 16 -7 113 -14 249 -17 l223 -5 2 -168 2 -167 -86
0 -86 0 5 -25 c4 -25 5 -25 111 -25 l106 0 -3 195 -4 195 346 0 c204 0 365 4
393 11 70 15 123 55 153 116 l25 52 88 0 87 1 0 -135 0 -135 28 0 27 0 0 155
0 155 -112 0 -113 0 0 53 c0 103 -91 206 -199 225 l-43 7 126 85 126 85 0 88
c0 86 0 87 -25 87 -24 0 -25 -2 -25 -74 l0 -73 -42 -28 c-24 -16 -83 -57 -131
-92 -49 -35 -93 -65 -99 -66 -6 -1 -13 14 -15 33 -9 74 -73 150 -156 185 -48
20 -149 20 -190 -1 -29 -16 -32 -16 -42 2 -43 77 -168 164 -234 164 l-31 0 0
185 0 185 -214 0 -214 0 -4 -25z m482 -395 c0 -4 16 -12 36 -19 49 -18 113
-77 135 -126 14 -31 19 -65 19 -152 l0 -113 55 0 c48 0 55 -2 55 -20 0 -41 89
-55 131 -21 35 28 33 95 -4 127 -39 34 -82 32 -117 -6 -17 -18 -38 -30 -54
-30 -26 0 -26 0 -26 85 l0 85 33 20 c96 59 214 19 270 -90 25 -48 28 -62 23
-114 -5 -53 -4 -57 12 -51 94 40 122 43 184 16 46 -19 108 -74 108 -94 0 -8
-29 -12 -97 -12 l-97 0 3 -47 c1 -30 -2 -48 -8 -48 -44 0 -70 -102 -33 -131
38 -31 64 -41 72 -29 4 7 13 9 19 6 17 -11 61 43 61 76 0 28 -38 78 -60 78 -5
0 -10 11 -10 25 l0 26 88 -3 c86 -3 87 -3 90 -30 4 -34 -22 -124 -43 -144 -8
-8 -15 -12 -16 -7 0 4 -4 -2 -9 -14 -5 -13 -18 -23 -29 -23 -11 0 -21 -5 -23
-12 -3 -8 -45 -12 -136 -14 l-132 -2 0 67 c0 54 -4 70 -20 84 -16 14 -18 21
-10 36 22 43 -25 101 -82 101 -82 0 -116 -81 -58 -141 26 -28 34 -31 69 -25
50 8 63 -8 59 -69 l-3 -47 -170 1 -170 0 -3 51 c-3 46 0 53 27 76 26 21 31 33
31 69 0 35 -5 48 -26 64 -15 12 -40 21 -56 21 -39 0 -88 -48 -88 -87 0 -33 25
-73 46 -73 11 0 14 -15 14 -62 l0 -63 -261 3 c-278 3 -292 5 -347 56 -21 18
-62 86 -62 101 0 3 66 5 147 5 l147 0 26 -32 c36 -43 91 -45 126 -4 34 38 31
80 -6 118 -27 26 -36 30 -68 25 -22 -4 -45 -16 -57 -31 -19 -24 -24 -25 -168
-28 -165 -3 -163 -5 -132 70 20 47 50 79 97 103 33 17 60 19 228 19 l190 0 0
59 c0 52 3 62 26 78 18 13 27 31 31 60 5 35 2 45 -20 67 -53 53 -147 18 -147
-54 0 -35 26 -80 46 -80 10 0 14 -13 14 -40 l0 -40 -109 0 c-78 0 -110 4 -113
13 -8 23 -1 112 13 157 17 58 106 148 169 172 42 16 170 21 170 8z m-75 -195
c0 -27 -3 -30 -30 -30 -21 0 -31 5 -33 18 -6 33 6 49 35 45 24 -3 28 -8 28
-33z m475 -170 c23 -28 -9 -72 -45 -59 -36 14 -24 74 15 74 10 0 23 -7 30 -15z
m-280 -224 c7 -14 5 -24 -8 -41 -20 -24 -48 -19 -57 11 -14 42 44 68 65 30z
m299 5 c9 -11 10 -20 1 -36 -21 -39 -83 -7 -67 34 8 20 50 21 66 2z m-625 -2
c22 -9 20 -51 -3 -64 -37 -19 -70 16 -49 54 9 17 26 20 52 10z m932 -90 c8
-32 -15 -59 -44 -50 -43 14 -28 76 19 76 12 0 21 -9 25 -26z"/>
<path d="M270 594 l0 -296 195 4 195 3 0 -52 0 -53 -65 0 c-62 0 -65 -1 -65
-25 l0 -24 156 -3 c86 -2 157 -2 158 0 2 1 1 14 -2 27 -4 24 -8 25 -68 25
l-64 0 0 53 0 52 195 -3 195 -4 0 296 0 296 -415 0 -415 0 0 -296z m780 1 l0
-245 -365 0 -365 0 0 245 0 245 365 0 365 0 0 -245z"/>
<path d="M377 772 c-26 -28 -27 -29 -9 -45 17 -16 20 -15 50 16 25 26 29 36
20 45 -18 18 -32 15 -61 -16z"/>
<path d="M431 716 c-46 -47 -52 -57 -41 -70 20 -25 32 -19 92 48 45 50 54 65
42 70 -29 11 -40 6 -93 -48z"/>
<path d="M2175 780 c-27 -11 -63 -31 -80 -44 -28 -23 -29 -26 -13 -42 15 -15
18 -15 52 11 40 30 113 55 163 55 47 0 138 -34 174 -65 25 -20 34 -23 45 -14
8 6 14 15 14 20 0 16 -45 51 -98 75 -68 31 -182 33 -257 4z"/>
<path d="M2205 666 c-17 -7 -36 -21 -44 -30 -12 -15 -12 -19 1 -32 13 -13 20
-12 62 12 39 22 55 25 93 20 24 -3 58 -15 74 -27 24 -17 33 -18 44 -9 25 21
17 37 -28 59 -50 24 -154 28 -202 7z"/>
<path d="M2258 563 c-21 -5 -24 -28 -6 -40 21 -12 88 -10 100 4 23 28 -38 51
-94 36z"/>
<path d="M1931 424 c-18 -23 -21 -41 -21 -124 0 -83 3 -101 21 -124 l20 -26
379 0 379 0 20 26 c18 23 21 41 21 121 0 89 -9 129 -34 145 -6 4 -181 8 -388
8 l-377 0 -20 -26z m761 -32 c5 -5 8 -49 6 -98 l-3 -89 -365 0 -365 0 -3 88
c-2 49 1 94 7 100 11 14 709 13 723 -1z"/>
<path d="M2034 316 c-12 -30 4 -47 38 -44 28 2 33 7 33 28 0 21 -5 26 -33 28
-22 2 -34 -2 -38 -12z"/>
<path d="M2180 299 c0 -28 2 -30 33 -27 27 2 33 8 35 31 3 25 1 27 -32 27 -33
0 -36 -2 -36 -31z"/>
<path d="M2320 300 c0 -28 3 -30 35 -30 32 0 35 2 35 30 0 28 -3 30 -35 30
-32 0 -35 -2 -35 -30z"/>
</g>
</svg>
